<?xml version="1.0" encoding="UTF-8"?>
<!--
  File Box 顶栏图标精灵 / Header icon sprite
  图标来源 Lucide (ISC License, https://lucide.dev),v0.460.0
  用法 / usage: <svg class="ico"><use href="/images/icons.svg#ico-user"/></svg>
  symbol 上用 stroke="currentColor",颜色随宿主 color 变化(悬停/主题)。
  stroke=currentColor on each symbol: icons follow the host text color (hover/theme).
-->
<svg xmlns="http://www.w3.org/2000/svg" style="display:none">
    <symbol id="ico-database" viewBox="0 0 24 24" fill="none" stroke="currentColor" stroke-width="2" stroke-linecap="round" stroke-linejoin="round">
        <ellipse cx="12" cy="5" rx="9" ry="3"/>
        <path d="M3 5V19A9 3 0 0 0 21 19V5"/>
        <path d="M3 12A9 3 0 0 0 21 12"/>
    </symbol>
    <symbol id="ico-user" viewBox="0 0 24 24" fill="none" stroke="currentColor" stroke-width="2" stroke-linecap="round" stroke-linejoin="round">
        <path d="M19 21v-2a4 4 0 0 0-4-4H9a4 4 0 0 0-4 4v2"/>
        <circle cx="12" cy="7" r="4"/>
    </symbol>
    <symbol id="ico-logout" viewBox="0 0 24 24" fill="none" stroke="currentColor" stroke-width="2" stroke-linecap="round" stroke-linejoin="round">
        <path d="M9 21H5a2 2 0 0 1-2-2V5a2 2 0 0 1 2-2h4"/>
        <polyline points="16 17 21 12 16 7"/>
        <line x1="21" x2="9" y1="12" y2="12"/>
    </symbol>
    <symbol id="ico-login" viewBox="0 0 24 24" fill="none" stroke="currentColor" stroke-width="2" stroke-linecap="round" stroke-linejoin="round">
        <path d="M15 3h4a2 2 0 0 1 2 2v14a2 2 0 0 1-2 2h-4"/>
        <polyline points="10 17 15 12 10 7"/>
        <line x1="15" x2="3" y1="12" y2="12"/>
    </symbol>
    <symbol id="ico-key" viewBox="0 0 24 24" fill="none" stroke="currentColor" stroke-width="2" stroke-linecap="round" stroke-linejoin="round">
        <rect width="18" height="11" x="3" y="11" rx="2" ry="2"/>
        <path d="M7 11V7a5 5 0 0 1 10 0v4"/>
    </symbol>
    <symbol id="ico-dashboard" viewBox="0 0 24 24" fill="none" stroke="currentColor" stroke-width="2" stroke-linecap="round" stroke-linejoin="round">
        <rect width="7" height="9" x="3" y="3" rx="1"/>
        <rect width="7" height="5" x="14" y="3" rx="1"/>
        <rect width="7" height="9" x="14" y="12" rx="1"/>
        <rect width="7" height="5" x="3" y="16" rx="1"/>
    </symbol>
    <symbol id="ico-chevron" viewBox="0 0 24 24" fill="none" stroke="currentColor" stroke-width="2" stroke-linecap="round" stroke-linejoin="round">
        <path d="m6 9 6 6 6-6"/>
    </symbol>
    <symbol id="ico-sun" viewBox="0 0 24 24" fill="none" stroke="currentColor" stroke-width="2" stroke-linecap="round" stroke-linejoin="round">
        <circle cx="12" cy="12" r="4"/>
        <path d="M12 2v2"/>
        <path d="M12 20v2"/>
        <path d="m4.93 4.93 1.41 1.41"/>
        <path d="m17.66 17.66 1.41 1.41"/>
        <path d="M2 12h2"/>
        <path d="M20 12h2"/>
        <path d="m6.34 17.66-1.41 1.41"/>
        <path d="m19.07 4.93-1.41 1.41"/>
    </symbol>
    <symbol id="ico-moon" viewBox="0 0 24 24" fill="none" stroke="currentColor" stroke-width="2" stroke-linecap="round" stroke-linejoin="round">
        <path d="M12 3a6 6 0 0 0 9 9 9 9 0 1 1-9-9Z"/>
    </symbol>
    <symbol id="ico-home" viewBox="0 0 24 24" fill="none" stroke="currentColor" stroke-width="2" stroke-linecap="round" stroke-linejoin="round">
        <path d="m3 9 9-7 9 7v11a2 2 0 0 1-2 2H5a2 2 0 0 1-2-2z"/>
        <polyline points="9 22 9 12 15 12 15 22"/>
    </symbol>
    <symbol id="ico-copy" viewBox="0 0 24 24" fill="none" stroke="currentColor" stroke-width="2" stroke-linecap="round" stroke-linejoin="round">
        <rect width="14" height="14" x="8" y="8" rx="2" ry="2"/>
        <path d="M4 16c-1.1 0-2-.9-2-2V4c0-1.1.9-2 2-2h10c1.1 0 2 .9 2 2"/>
    </symbol>
    <symbol id="ico-history" viewBox="0 0 24 24" fill="none" stroke="currentColor" stroke-width="2" stroke-linecap="round" stroke-linejoin="round">
        <path d="M3 12a9 9 0 1 0 9-9 9.75 9.75 0 0 0-6.74 2.74L3 8"/>
        <path d="M3 3v5h5"/>
        <path d="M12 7v5l4 2"/>
    </symbol>
    <symbol id="ico-folder-tree" viewBox="0 0 24 24" fill="none" stroke="currentColor" stroke-width="2" stroke-linecap="round" stroke-linejoin="round">
        <path d="M20 10a1 1 0 0 0 1-1V6a1 1 0 0 0-1-1h-2.5a1 1 0 0 1-.8-.4l-.9-1.2A1 1 0 0 0 15 3h-2a1 1 0 0 0-1 1v5a1 1 0 0 0 1 1Z"/>
        <path d="M20 21a1 1 0 0 0 1-1v-3a1 1 0 0 0-1-1h-2.9a1 1 0 0 1-.88-.55l-.42-.85a1 1 0 0 0-.92-.6H13a1 1 0 0 0-1 1v5a1 1 0 0 0 1 1Z"/>
        <path d="M3 5a2 2 0 0 0 2 2h3"/>
        <path d="M3 3v13a2 2 0 0 0 2 2h3"/>
    </symbol>
    <symbol id="ico-folder" viewBox="0 0 24 24" fill="none" stroke="currentColor" stroke-width="2" stroke-linecap="round" stroke-linejoin="round">
        <path d="M20 20a2 2 0 0 0 2-2V8a2 2 0 0 0-2-2h-7.9a2 2 0 0 1-1.69-.9L9.6 3.9A2 2 0 0 0 7.93 3H4a2 2 0 0 0-2 2v13a2 2 0 0 0 2 2Z"/>
    </symbol>
    <symbol id="ico-trash" viewBox="0 0 24 24" fill="none" stroke="currentColor" stroke-width="2" stroke-linecap="round" stroke-linejoin="round">
        <path d="M10 11v6"/>
        <path d="M14 11v6"/>
        <path d="M19 6v14a2 2 0 0 1-2 2H7a2 2 0 0 1-2-2V6"/>
        <path d="M3 6h18"/>
        <path d="M8 6V4a2 2 0 0 1 2-2h4a2 2 0 0 1 2 2v2"/>
    </symbol>
    <symbol id="ico-alert" viewBox="0 0 24 24" fill="none" stroke="currentColor" stroke-width="2" stroke-linecap="round" stroke-linejoin="round">
        <path d="m21.73 18-8-14a2 2 0 0 0-3.48 0l-8 14A2 2 0 0 0 4 21h16a2 2 0 0 0 1.73-3"/>
        <path d="M12 9v4"/>
        <path d="M12 17h.01"/>
    </symbol>
    <!-- 勾选/有权限 / check (allowed) — Lucide "check" -->
    <symbol id="ico-check" viewBox="0 0 24 24" fill="none" stroke="currentColor" stroke-width="2" stroke-linecap="round" stroke-linejoin="round">
        <polyline points="20 6 9 17 4 12"/>
    </symbol>
    <!-- 减号/无权限 / minus (not allowed) — Lucide "minus" -->
    <symbol id="ico-minus" viewBox="0 0 24 24" fill="none" stroke="currentColor" stroke-width="2" stroke-linecap="round" stroke-linejoin="round">
        <line x1="5" y1="12" x2="19" y2="12"/>
    </symbol>
    <symbol id="ico-files" viewBox="0 0 24 24" fill="none" stroke="currentColor" stroke-width="2" stroke-linecap="round" stroke-linejoin="round">
        <path d="M20 7h-3a2 2 0 0 1-2-2V2"/>
        <path d="M9 18a2 2 0 0 1-2-2V4a2 2 0 0 1 2-2h7l4 4v10a2 2 0 0 1-2 2Z"/>
        <path d="M3 7.6v12.8A1.6 1.6 0 0 0 4.6 22h9.8"/>
    </symbol>
    <symbol id="ico-gauge" viewBox="0 0 24 24" fill="none" stroke="currentColor" stroke-width="2" stroke-linecap="round" stroke-linejoin="round">
        <path d="m12 14 4-4"/>
        <path d="M3.34 19a10 10 0 1 1 17.32 0"/>
    </symbol>
    <!-- 匿名/公开访问图标 / anonymous (public) access — Lucide "globe" -->
    <symbol id="ico-globe" viewBox="0 0 24 24" fill="none" stroke="currentColor" stroke-width="2" stroke-linecap="round" stroke-linejoin="round">
        <circle cx="12" cy="12" r="10"/>
        <path d="M12 2a14.5 14.5 0 0 0 0 20 14.5 14.5 0 0 0 0-20"/>
        <path d="M2 12h20"/>
    </symbol>
    <!-- 侧栏菜单图标 / sidebar menu icons -->
    <symbol id="ico-users" viewBox="0 0 24 24" fill="none" stroke="currentColor" stroke-width="2" stroke-linecap="round" stroke-linejoin="round">
        <path d="M16 21v-2a4 4 0 0 0-4-4H6a4 4 0 0 0-4 4v2"/>
        <circle cx="9" cy="7" r="4"/>
        <path d="M22 21v-2a4 4 0 0 0-3-3.87"/>
        <path d="M16 3.13a4 4 0 0 1 0 7.75"/>
    </symbol>
    <symbol id="ico-storage" viewBox="0 0 24 24" fill="none" stroke="currentColor" stroke-width="2" stroke-linecap="round" stroke-linejoin="round">
        <line x1="22" x2="2" y1="12" y2="12"/>
        <path d="M5.45 5.11 2 12v6a2 2 0 0 0 2 2h16a2 2 0 0 0 2-2v-6l-3.45-6.89A2 2 0 0 0 16.76 4H7.24a2 2 0 0 0-1.79 1.11z"/>
        <line x1="6" x2="6.01" y1="16" y2="16"/>
        <line x1="10" x2="10.01" y1="16" y2="16"/>
    </symbol>
    <symbol id="ico-settings" viewBox="0 0 24 24" fill="none" stroke="currentColor" stroke-width="2" stroke-linecap="round" stroke-linejoin="round">
        <path d="M12.22 2h-.44a2 2 0 0 0-2 2v.18a2 2 0 0 1-1 1.73l-.43.25a2 2 0 0 1-2 0l-.15-.08a2 2 0 0 0-2.73.73l-.22.38a2 2 0 0 0 .73 2.73l.15.1a2 2 0 0 1 1 1.72v.51a2 2 0 0 1-1 1.74l-.15.09a2 2 0 0 0-.73 2.73l.22.38a2 2 0 0 0 2.73.73l.15-.08a2 2 0 0 1 2 0l.43.25a2 2 0 0 1 1 1.73V20a2 2 0 0 0 2 2h.44a2 2 0 0 0 2-2v-.18a2 2 0 0 1 1-1.73l.43-.25a2 2 0 0 1 2 0l.15.08a2 2 0 0 0 2.73-.73l.22-.39a2 2 0 0 0-.73-2.73l-.15-.08a2 2 0 0 1-1-1.74v-.5a2 2 0 0 1 1-1.74l.15-.09a2 2 0 0 0 .73-2.73l-.22-.38a2 2 0 0 0-2.73-.73l-.15.08a2 2 0 0 1-2 0l-.43-.25a2 2 0 0 1-1-1.73V4a2 2 0 0 0-2-2z"/>
        <circle cx="12" cy="12" r="3"/>
    </symbol>
    <symbol id="ico-github" viewBox="0 0 24 24" fill="none" stroke="currentColor" stroke-width="2" stroke-linecap="round" stroke-linejoin="round">
        <path d="M15 22v-4a4.8 4.8 0 0 0-1-3.5c3 0 6-2 6-5.5.08-1.25-.27-2.48-1-3.5.28-1.15.28-2.35 0-3.5 0 0-1 0-3 1.5-2.64-.5-5.36-.5-8 0C6 2 5 2 5 2c-.3 1.15-.3 2.35 0 3.5A5.4 5.4 0 0 0 4 9c0 3.5 3 5.5 6 5.5-.39.49-.68 1.05-.85 1.65-.17.6-.22 1.23-.15 1.85v4"/>
        <path d="M9 18c-4.51 2-5-2-7-2"/>
    </symbol>
    <symbol id="ico-tag" viewBox="0 0 24 24" fill="none" stroke="currentColor" stroke-width="2" stroke-linecap="round" stroke-linejoin="round">
        <path d="M12.586 2.586A2 2 0 0 0 11.172 2H4a2 2 0 0 0-2 2v7.172a2 2 0 0 0 .586 1.414l8.704 8.704a2.426 2.426 0 0 0 3.42 0l6.58-6.58a2.426 2.426 0 0 0 0-3.42z"/>
        <circle cx="7.5" cy="7.5" r=".5" fill="currentColor"/>
    </symbol>
    <symbol id="ico-scale" viewBox="0 0 24 24" fill="none" stroke="currentColor" stroke-width="2" stroke-linecap="round" stroke-linejoin="round">
        <path d="m16 16 3-8 3 8c-.87.65-1.92 1-3 1s-2.13-.35-3-1Z"/>
        <path d="m2 16 3-8 3 8c-.87.65-1.92 1-3 1s-2.13-.35-3-1Z"/>
        <path d="M7 21h10"/>
        <path d="M12 3v18"/>
        <path d="M3 7h2c2 0 5-1 7-2 2 1 5 2 7 2h2"/>
    </symbol>
</svg>
