<?xml version="1.0" encoding="UTF-8"?>
<!--
  File Box 顶栏图标精灵 / Header icon sprite
  图标来源 Lucide (ISC License, https://lucide.dev),v0.460.0
  用法 / usage: <svg class="ico"><use href="/images/icons.svg#ico-user"/></svg>
  symbol 上用 stroke="currentColor",颜色随宿主 color 变化(悬停/主题)。
  stroke=currentColor on each symbol: icons follow the host text color (hover/theme).
-->
<svg xmlns="http://www.w3.org/2000/svg" style="display:none">
    <symbol id="ico-database" viewBox="0 0 24 24" fill="none" stroke="currentColor" stroke-width="2" stroke-linecap="round" stroke-linejoin="round">
        <ellipse cx="12" cy="5" rx="9" ry="3"/>
        <path d="M3 5V19A9 3 0 0 0 21 19V5"/>
        <path d="M3 12A9 3 0 0 0 21 12"/>
    </symbol>
    <symbol id="ico-user" viewBox="0 0 24 24" fill="none" stroke="currentColor" stroke-width="2" stroke-linecap="round" stroke-linejoin="round">
        <path d="M19 21v-2a4 4 0 0 0-4-4H9a4 4 0 0 0-4 4v2"/>
        <circle cx="12" cy="7" r="4"/>
    </symbol>
    <symbol id="ico-logout" viewBox="0 0 24 24" fill="none" stroke="currentColor" stroke-width="2" stroke-linecap="round" stroke-linejoin="round">
        <path d="M9 21H5a2 2 0 0 1-2-2V5a2 2 0 0 1 2-2h4"/>
        <polyline points="16 17 21 12 16 7"/>
        <line x1="21" x2="9" y1="12" y2="12"/>
    </symbol>
    <symbol id="ico-key" viewBox="0 0 24 24" fill="none" stroke="currentColor" stroke-width="2" stroke-linecap="round" stroke-linejoin="round">
        <rect width="18" height="11" x="3" y="11" rx="2" ry="2"/>
        <path d="M7 11V7a5 5 0 0 1 10 0v4"/>
    </symbol>
    <symbol id="ico-dashboard" viewBox="0 0 24 24" fill="none" stroke="currentColor" stroke-width="2" stroke-linecap="round" stroke-linejoin="round">
        <rect width="7" height="9" x="3" y="3" rx="1"/>
        <rect width="7" height="5" x="14" y="3" rx="1"/>
        <rect width="7" height="9" x="14" y="12" rx="1"/>
        <rect width="7" height="5" x="3" y="16" rx="1"/>
    </symbol>
    <symbol id="ico-chevron" viewBox="0 0 24 24" fill="none" stroke="currentColor" stroke-width="2" stroke-linecap="round" stroke-linejoin="round">
        <path d="m6 9 6 6 6-6"/>
    </symbol>
    <symbol id="ico-sun" viewBox="0 0 24 24" fill="none" stroke="currentColor" stroke-width="2" stroke-linecap="round" stroke-linejoin="round">
        <circle cx="12" cy="12" r="4"/>
        <path d="M12 2v2"/>
        <path d="M12 20v2"/>
        <path d="m4.93 4.93 1.41 1.41"/>
        <path d="m17.66 17.66 1.41 1.41"/>
        <path d="M2 12h2"/>
        <path d="M20 12h2"/>
        <path d="m6.34 17.66-1.41 1.41"/>
        <path d="m19.07 4.93-1.41 1.41"/>
    </symbol>
    <symbol id="ico-moon" viewBox="0 0 24 24" fill="none" stroke="currentColor" stroke-width="2" stroke-linecap="round" stroke-linejoin="round">
        <path d="M12 3a6 6 0 0 0 9 9 9 9 0 1 1-9-9Z"/>
    </symbol>
</svg>
